<svg width="512" height="521" viewBox="0 0 512 521" fill="none" xmlns="http://www.w3.org/2000/svg">
<path d="M370.43 218.645C370.43 333.837 256.001 427.219 256.001 427.219C256.001 427.219 141.572 333.837 141.572 218.645C141.572 103.453 256.001 10.071 256.001 10.071C256.001 10.071 370.43 103.453 370.43 218.645Z" fill="#0FDB54"/>
<path d="M318.417 261.294C329.333 261.294 338.182 252.445 338.182 241.529C338.182 230.613 329.333 221.764 318.417 221.764C307.501 221.764 298.652 230.613 298.652 241.529C298.652 252.445 307.501 261.294 318.417 261.294Z" fill="#EBA328"/>
<path d="M212.309 209.281C223.225 209.281 232.074 200.432 232.074 189.516C232.074 178.6 223.225 169.751 212.309 169.751C201.393 169.751 192.544 178.6 192.544 189.516C192.544 200.432 201.393 209.281 212.309 209.281Z" fill="#EBA328"/>
<path d="M254.96 140.623C265.876 140.623 274.725 131.774 274.725 120.858C274.725 109.942 265.876 101.093 254.96 101.093C244.044 101.093 235.195 109.942 235.195 120.858C235.195 131.774 244.044 140.623 254.96 140.623Z" fill="#EBA328"/>
<path d="M202.947 340.355C213.863 340.355 222.712 331.506 222.712 320.59C222.712 309.674 213.863 300.825 202.947 300.825C192.031 300.825 183.182 309.674 183.182 320.59C183.182 331.506 192.031 340.355 202.947 340.355Z" fill="#EBA328"/>
<path d="M316.336 194.717C327.252 194.717 336.101 185.868 336.101 174.952C336.101 164.036 327.252 155.187 316.336 155.187C305.42 155.187 296.571 164.036 296.571 174.952C296.571 185.868 305.42 194.717 316.336 194.717Z" fill="#EBA328"/>
<g filter="url(#filter0_d_1_28)">
<mask id="path-7-inside-1_1_28" fill="white">
<path d="M263.803 430.834C271.856 423.874 295.507 402.408 319.433 370.839C357.899 320.086 378.232 267.458 378.232 218.644C378.232 169.83 357.9 117.201 319.433 66.448C290.595 28.399 262.131 5.004 260.935 4.026L256.001 0L251.068 4.026C249.871 5.003 221.407 28.399 192.569 66.449C154.103 117.202 133.77 169.83 133.77 218.644C133.77 249.208 141.538 280.949 156.858 312.982L170.935 306.25C168.849 301.889 166.932 297.539 165.147 293.199L178.962 307.014C173.017 317.526 174.51 331.138 183.455 340.083C188.662 345.291 195.585 348.159 202.949 348.159C207.789 348.159 212.435 346.913 216.532 344.585L248.201 376.254V409.698C236.458 398.519 218.255 379.72 200.747 355.676L188.133 364.862C213.48 399.673 239.636 423.435 248.201 430.839V496.399H209.191V512.003H334.023V496.399H263.805L263.803 430.834ZM307.223 361.117C291.008 382.554 274.648 399.378 263.803 409.701V376.252L346.732 293.324C335.776 319.888 320.802 343.165 307.223 361.117ZM220.769 197.976C218.51 200.235 215.506 201.48 212.311 201.48C209.115 201.48 206.111 200.236 203.852 197.975C199.188 193.311 199.188 185.723 203.853 181.057C206.112 178.798 209.116 177.553 212.311 177.553C215.507 177.553 218.51 178.797 220.769 181.057L220.77 181.058C225.433 185.722 225.433 193.311 220.769 197.976ZM192.817 209.008C198.024 214.216 204.947 217.084 212.311 217.084C216.544 217.084 220.629 216.132 224.328 214.337L248.2 238.209V285.164L152.007 188.971C154.223 176.211 157.719 163.862 162.083 152.094L187.501 177.512C182.543 187.778 184.31 200.503 192.817 209.008ZM254.96 108.896C258.156 108.896 261.159 110.14 263.418 112.4L263.419 112.401C268.083 117.065 268.083 124.653 263.418 129.319C261.159 131.578 258.155 132.823 254.96 132.823C251.765 132.823 248.76 131.579 246.501 129.318C241.837 124.654 241.837 117.066 246.502 112.4C248.761 110.14 251.766 108.896 254.96 108.896ZM324.795 166.494C329.46 171.159 329.46 178.747 324.795 183.413C322.536 185.672 319.531 186.917 316.337 186.917C313.141 186.917 310.137 185.673 307.878 183.412C303.214 178.748 303.214 171.16 307.879 166.494C310.138 164.235 313.142 162.99 316.337 162.99C319.532 162.99 322.536 164.234 324.795 166.494ZM302.953 199.058C307.002 201.313 311.575 202.519 316.337 202.519C323.701 202.519 330.623 199.651 335.83 194.444C344.719 185.555 346.248 172.058 340.435 161.575L349.92 152.09C354.284 163.859 357.78 176.208 359.996 188.967L331.635 217.328C327.628 215.132 323.113 213.961 318.417 213.961C311.053 213.961 304.131 216.829 298.924 222.036C290.083 230.877 288.521 244.278 294.225 254.738L263.802 285.162V238.207L302.953 199.058ZM362.628 218.645C362.628 233.005 360.728 247.026 357.485 260.503L263.803 354.185V307.23L305.265 265.768C309.255 267.94 313.746 269.098 318.417 269.098C325.781 269.098 332.703 266.23 337.91 261.023C346.732 252.2 348.307 238.837 342.645 228.388L362.32 208.714C362.517 212.004 362.628 215.315 362.628 218.645ZM326.876 249.99C324.617 252.249 321.612 253.494 318.418 253.494C315.222 253.494 312.218 252.25 309.959 249.989C305.295 245.325 305.295 237.737 309.96 233.071C312.219 230.812 315.223 229.567 318.418 229.567C321.613 229.567 324.617 230.811 326.876 233.071V233.072C331.541 237.736 331.541 245.324 326.876 249.99ZM318.685 92.236L289.546 121.375L300.579 132.409L327.279 105.709C333.036 115.238 338.57 125.536 343.487 136.454L329.322 150.62C325.374 148.506 320.942 147.385 316.336 147.385C308.972 147.385 302.05 150.253 296.843 155.46C288.067 164.236 286.46 177.503 292.014 187.928L263.802 216.141V146.977C267.769 145.638 271.405 143.4 274.452 140.353C285.2 129.605 285.2 112.115 274.452 101.368C272.41 99.326 270.101 97.649 267.608 96.358L298.674 65.292C301.508 68.771 304.366 72.397 307.222 76.171C310.975 81.132 314.834 86.508 318.685 92.236ZM288.554 53.346L263.803 78.097V27.588C270.426 33.891 279.106 42.623 288.554 53.346ZM248.199 27.588V77.285L223.639 53.13C233.013 42.504 241.62 33.849 248.199 27.588ZM213.516 65.059L244.361 95.396C241.076 96.764 238.059 98.775 235.468 101.366C224.72 112.114 224.72 129.604 235.468 140.351C239.041 143.924 243.423 146.396 248.2 147.595V216.141L235.876 203.816C242.309 193.213 240.956 179.176 231.804 170.025C226.597 164.817 219.674 161.949 212.31 161.949C207.184 161.949 202.272 163.343 198.003 165.944L168.513 136.454C173.431 125.536 178.965 115.238 184.721 105.709L209.059 130.047L220.092 119.013L193.314 92.235C197.165 86.505 201.024 81.13 204.776 76.169C207.698 72.312 210.621 68.609 213.516 65.059ZM202.947 332.554C199.751 332.554 196.747 331.31 194.488 329.049C189.824 324.385 189.824 316.797 194.489 312.131C196.748 309.872 199.752 308.627 202.947 308.627C206.143 308.627 209.146 309.871 211.405 312.131L211.406 312.132C216.07 316.796 216.07 324.384 211.405 329.05C209.147 331.309 206.143 332.554 202.947 332.554ZM227.378 333.363C232.803 322.97 231.158 309.816 222.441 301.098C217.234 295.89 210.311 293.022 202.947 293.022C198.422 293.022 194.065 294.109 190.169 296.152L154.477 260.46C151.093 246.287 149.373 232.316 149.373 218.641C149.373 215.311 149.484 212.002 149.682 208.711L248.198 307.226V354.181L227.378 333.363Z"/>
</mask>
<path d="M263.803 430.834C271.856 423.874 295.507 402.408 319.433 370.839C357.899 320.086 378.232 267.458 378.232 218.644C378.232 169.83 357.9 117.201 319.433 66.448C290.595 28.399 262.131 5.004 260.935 4.026L256.001 0L251.068 4.026C249.871 5.003 221.407 28.399 192.569 66.449C154.103 117.202 133.77 169.83 133.77 218.644C133.77 249.208 141.538 280.949 156.858 312.982L170.935 306.25C168.849 301.889 166.932 297.539 165.147 293.199L178.962 307.014C173.017 317.526 174.51 331.138 183.455 340.083C188.662 345.291 195.585 348.159 202.949 348.159C207.789 348.159 212.435 346.913 216.532 344.585L248.201 376.254V409.698C236.458 398.519 218.255 379.72 200.747 355.676L188.133 364.862C213.48 399.673 239.636 423.435 248.201 430.839V496.399H209.191V512.003H334.023V496.399H263.805L263.803 430.834ZM307.223 361.117C291.008 382.554 274.648 399.378 263.803 409.701V376.252L346.732 293.324C335.776 319.888 320.802 343.165 307.223 361.117ZM220.769 197.976C218.51 200.235 215.506 201.48 212.311 201.48C209.115 201.48 206.111 200.236 203.852 197.975C199.188 193.311 199.188 185.723 203.853 181.057C206.112 178.798 209.116 177.553 212.311 177.553C215.507 177.553 218.51 178.797 220.769 181.057L220.77 181.058C225.433 185.722 225.433 193.311 220.769 197.976ZM192.817 209.008C198.024 214.216 204.947 217.084 212.311 217.084C216.544 217.084 220.629 216.132 224.328 214.337L248.2 238.209V285.164L152.007 188.971C154.223 176.211 157.719 163.862 162.083 152.094L187.501 177.512C182.543 187.778 184.31 200.503 192.817 209.008ZM254.96 108.896C258.156 108.896 261.159 110.14 263.418 112.4L263.419 112.401C268.083 117.065 268.083 124.653 263.418 129.319C261.159 131.578 258.155 132.823 254.96 132.823C251.765 132.823 248.76 131.579 246.501 129.318C241.837 124.654 241.837 117.066 246.502 112.4C248.761 110.14 251.766 108.896 254.96 108.896ZM324.795 166.494C329.46 171.159 329.46 178.747 324.795 183.413C322.536 185.672 319.531 186.917 316.337 186.917C313.141 186.917 310.137 185.673 307.878 183.412C303.214 178.748 303.214 171.16 307.879 166.494C310.138 164.235 313.142 162.99 316.337 162.99C319.532 162.99 322.536 164.234 324.795 166.494ZM302.953 199.058C307.002 201.313 311.575 202.519 316.337 202.519C323.701 202.519 330.623 199.651 335.83 194.444C344.719 185.555 346.248 172.058 340.435 161.575L349.92 152.09C354.284 163.859 357.78 176.208 359.996 188.967L331.635 217.328C327.628 215.132 323.113 213.961 318.417 213.961C311.053 213.961 304.131 216.829 298.924 222.036C290.083 230.877 288.521 244.278 294.225 254.738L263.802 285.162V238.207L302.953 199.058ZM362.628 218.645C362.628 233.005 360.728 247.026 357.485 260.503L263.803 354.185V307.23L305.265 265.768C309.255 267.94 313.746 269.098 318.417 269.098C325.781 269.098 332.703 266.23 337.91 261.023C346.732 252.2 348.307 238.837 342.645 228.388L362.32 208.714C362.517 212.004 362.628 215.315 362.628 218.645ZM326.876 249.99C324.617 252.249 321.612 253.494 318.418 253.494C315.222 253.494 312.218 252.25 309.959 249.989C305.295 245.325 305.295 237.737 309.96 233.071C312.219 230.812 315.223 229.567 318.418 229.567C321.613 229.567 324.617 230.811 326.876 233.071V233.072C331.541 237.736 331.541 245.324 326.876 249.99ZM318.685 92.236L289.546 121.375L300.579 132.409L327.279 105.709C333.036 115.238 338.57 125.536 343.487 136.454L329.322 150.62C325.374 148.506 320.942 147.385 316.336 147.385C308.972 147.385 302.05 150.253 296.843 155.46C288.067 164.236 286.46 177.503 292.014 187.928L263.802 216.141V146.977C267.769 145.638 271.405 143.4 274.452 140.353C285.2 129.605 285.2 112.115 274.452 101.368C272.41 99.326 270.101 97.649 267.608 96.358L298.674 65.292C301.508 68.771 304.366 72.397 307.222 76.171C310.975 81.132 314.834 86.508 318.685 92.236ZM288.554 53.346L263.803 78.097V27.588C270.426 33.891 279.106 42.623 288.554 53.346ZM248.199 27.588V77.285L223.639 53.13C233.013 42.504 241.62 33.849 248.199 27.588ZM213.516 65.059L244.361 95.396C241.076 96.764 238.059 98.775 235.468 101.366C224.72 112.114 224.72 129.604 235.468 140.351C239.041 143.924 243.423 146.396 248.2 147.595V216.141L235.876 203.816C242.309 193.213 240.956 179.176 231.804 170.025C226.597 164.817 219.674 161.949 212.31 161.949C207.184 161.949 202.272 163.343 198.003 165.944L168.513 136.454C173.431 125.536 178.965 115.238 184.721 105.709L209.059 130.047L220.092 119.013L193.314 92.235C197.165 86.505 201.024 81.13 204.776 76.169C207.698 72.312 210.621 68.609 213.516 65.059ZM202.947 332.554C199.751 332.554 196.747 331.31 194.488 329.049C189.824 324.385 189.824 316.797 194.489 312.131C196.748 309.872 199.752 308.627 202.947 308.627C206.143 308.627 209.146 309.871 211.405 312.131L211.406 312.132C216.07 316.796 216.07 324.384 211.405 329.05C209.147 331.309 206.143 332.554 202.947 332.554ZM227.378 333.363C232.803 322.97 231.158 309.816 222.441 301.098C217.234 295.89 210.311 293.022 202.947 293.022C198.422 293.022 194.065 294.109 190.169 296.152L154.477 260.46C151.093 246.287 149.373 232.316 149.373 218.641C149.373 215.311 149.484 212.002 149.682 208.711L248.198 307.226V354.181L227.378 333.363Z" fill="#1A1421"/>
<path d="M263.803 430.834C271.856 423.874 295.507 402.408 319.433 370.839C357.899 320.086 378.232 267.458 378.232 218.644C378.232 169.83 357.9 117.201 319.433 66.448C290.595 28.399 262.131 5.004 260.935 4.026L256.001 0L251.068 4.026C249.871 5.003 221.407 28.399 192.569 66.449C154.103 117.202 133.77 169.83 133.77 218.644C133.77 249.208 141.538 280.949 156.858 312.982L170.935 306.25C168.849 301.889 166.932 297.539 165.147 293.199L178.962 307.014C173.017 317.526 174.51 331.138 183.455 340.083C188.662 345.291 195.585 348.159 202.949 348.159C207.789 348.159 212.435 346.913 216.532 344.585L248.201 376.254V409.698C236.458 398.519 218.255 379.72 200.747 355.676L188.133 364.862C213.48 399.673 239.636 423.435 248.201 430.839V496.399H209.191V512.003H334.023V496.399H263.805L263.803 430.834ZM307.223 361.117C291.008 382.554 274.648 399.378 263.803 409.701V376.252L346.732 293.324C335.776 319.888 320.802 343.165 307.223 361.117ZM220.769 197.976C218.51 200.235 215.506 201.48 212.311 201.48C209.115 201.48 206.111 200.236 203.852 197.975C199.188 193.311 199.188 185.723 203.853 181.057C206.112 178.798 209.116 177.553 212.311 177.553C215.507 177.553 218.51 178.797 220.769 181.057L220.77 181.058C225.433 185.722 225.433 193.311 220.769 197.976ZM192.817 209.008C198.024 214.216 204.947 217.084 212.311 217.084C216.544 217.084 220.629 216.132 224.328 214.337L248.2 238.209V285.164L152.007 188.971C154.223 176.211 157.719 163.862 162.083 152.094L187.501 177.512C182.543 187.778 184.31 200.503 192.817 209.008ZM254.96 108.896C258.156 108.896 261.159 110.14 263.418 112.4L263.419 112.401C268.083 117.065 268.083 124.653 263.418 129.319C261.159 131.578 258.155 132.823 254.96 132.823C251.765 132.823 248.76 131.579 246.501 129.318C241.837 124.654 241.837 117.066 246.502 112.4C248.761 110.14 251.766 108.896 254.96 108.896ZM324.795 166.494C329.46 171.159 329.46 178.747 324.795 183.413C322.536 185.672 319.531 186.917 316.337 186.917C313.141 186.917 310.137 185.673 307.878 183.412C303.214 178.748 303.214 171.16 307.879 166.494C310.138 164.235 313.142 162.99 316.337 162.99C319.532 162.99 322.536 164.234 324.795 166.494ZM302.953 199.058C307.002 201.313 311.575 202.519 316.337 202.519C323.701 202.519 330.623 199.651 335.83 194.444C344.719 185.555 346.248 172.058 340.435 161.575L349.92 152.09C354.284 163.859 357.78 176.208 359.996 188.967L331.635 217.328C327.628 215.132 323.113 213.961 318.417 213.961C311.053 213.961 304.131 216.829 298.924 222.036C290.083 230.877 288.521 244.278 294.225 254.738L263.802 285.162V238.207L302.953 199.058ZM362.628 218.645C362.628 233.005 360.728 247.026 357.485 260.503L263.803 354.185V307.23L305.265 265.768C309.255 267.94 313.746 269.098 318.417 269.098C325.781 269.098 332.703 266.23 337.91 261.023C346.732 252.2 348.307 238.837 342.645 228.388L362.32 208.714C362.517 212.004 362.628 215.315 362.628 218.645ZM326.876 249.99C324.617 252.249 321.612 253.494 318.418 253.494C315.222 253.494 312.218 252.25 309.959 249.989C305.295 245.325 305.295 237.737 309.96 233.071C312.219 230.812 315.223 229.567 318.418 229.567C321.613 229.567 324.617 230.811 326.876 233.071V233.072C331.541 237.736 331.541 245.324 326.876 249.99ZM318.685 92.236L289.546 121.375L300.579 132.409L327.279 105.709C333.036 115.238 338.57 125.536 343.487 136.454L329.322 150.62C325.374 148.506 320.942 147.385 316.336 147.385C308.972 147.385 302.05 150.253 296.843 155.46C288.067 164.236 286.46 177.503 292.014 187.928L263.802 216.141V146.977C267.769 145.638 271.405 143.4 274.452 140.353C285.2 129.605 285.2 112.115 274.452 101.368C272.41 99.326 270.101 97.649 267.608 96.358L298.674 65.292C301.508 68.771 304.366 72.397 307.222 76.171C310.975 81.132 314.834 86.508 318.685 92.236ZM288.554 53.346L263.803 78.097V27.588C270.426 33.891 279.106 42.623 288.554 53.346ZM248.199 27.588V77.285L223.639 53.13C233.013 42.504 241.62 33.849 248.199 27.588ZM213.516 65.059L244.361 95.396C241.076 96.764 238.059 98.775 235.468 101.366C224.72 112.114 224.72 129.604 235.468 140.351C239.041 143.924 243.423 146.396 248.2 147.595V216.141L235.876 203.816C242.309 193.213 240.956 179.176 231.804 170.025C226.597 164.817 219.674 161.949 212.31 161.949C207.184 161.949 202.272 163.343 198.003 165.944L168.513 136.454C173.431 125.536 178.965 115.238 184.721 105.709L209.059 130.047L220.092 119.013L193.314 92.235C197.165 86.505 201.024 81.13 204.776 76.169C207.698 72.312 210.621 68.609 213.516 65.059ZM202.947 332.554C199.751 332.554 196.747 331.31 194.488 329.049C189.824 324.385 189.824 316.797 194.489 312.131C196.748 309.872 199.752 308.627 202.947 308.627C206.143 308.627 209.146 309.871 211.405 312.131L211.406 312.132C216.07 316.796 216.07 324.384 211.405 329.05C209.147 331.309 206.143 332.554 202.947 332.554ZM227.378 333.363C232.803 322.97 231.158 309.816 222.441 301.098C217.234 295.89 210.311 293.022 202.947 293.022C198.422 293.022 194.065 294.109 190.169 296.152L154.477 260.46C151.093 246.287 149.373 232.316 149.373 218.641C149.373 215.311 149.484 212.002 149.682 208.711L248.198 307.226V354.181L227.378 333.363Z" stroke="black" stroke-width="2" mask="url(#path-7-inside-1_1_28)"/>
</g>
<g filter="url(#filter1_d_1_28)">
<path d="M193.584 496.395H177.98V511.999H193.584V496.395Z" fill="#1A1421"/>
<path d="M178.48 496.895H193.084V511.499H178.48V496.895Z" stroke="black"/>
</g>
<defs>
<filter id="filter0_d_1_28" x="129.77" y="0" width="252.462" height="520.003" filterUnits="userSpaceOnUse" color-interpolation-filters="sRGB">
<feFlood flood-opacity="0" result="BackgroundImageFix"/>
<feColorMatrix in="SourceAlpha" type="matrix" values="0 0 0 0 0 0 0 0 0 0 0 0 0 0 0 0 0 0 127 0" result="hardAlpha"/>
<feOffset dy="4"/>
<feGaussianBlur stdDeviation="2"/>
<feComposite in2="hardAlpha" operator="out"/>
<feColorMatrix type="matrix" values="0 0 0 0 0 0 0 0 0 0 0 0 0 0 0 0 0 0 0.25 0"/>
<feBlend mode="normal" in2="BackgroundImageFix" result="effect1_dropShadow_1_28"/>
<feBlend mode="normal" in="SourceGraphic" in2="effect1_dropShadow_1_28" result="shape"/>
</filter>
<filter id="filter1_d_1_28" x="173.98" y="496.395" width="23.604" height="23.604" filterUnits="userSpaceOnUse" color-interpolation-filters="sRGB">
<feFlood flood-opacity="0" result="BackgroundImageFix"/>
<feColorMatrix in="SourceAlpha" type="matrix" values="0 0 0 0 0 0 0 0 0 0 0 0 0 0 0 0 0 0 127 0" result="hardAlpha"/>
<feOffset dy="4"/>
<feGaussianBlur stdDeviation="2"/>
<feComposite in2="hardAlpha" operator="out"/>
<feColorMatrix type="matrix" values="0 0 0 0 0 0 0 0 0 0 0 0 0 0 0 0 0 0 0.25 0"/>
<feBlend mode="normal" in2="BackgroundImageFix" result="effect1_dropShadow_1_28"/>
<feBlend mode="normal" in="SourceGraphic" in2="effect1_dropShadow_1_28" result="shape"/>
</filter>
</defs>
</svg>
